<svg width="42" height="29" viewBox="0 0 42 29" fill="none" xmlns="http://www.w3.org/2000/svg">
<rect width="42" height="29" rx="5" fill="white"/>
<rect x="0.5" y="0.5" width="41" height="28" rx="4.5" stroke="black" stroke-opacity="0.15"/>
<path d="M15.0327 22.5986C13.2573 22.5986 11.4827 21.9065 10.1365 20.5227C7.96077 18.2877 7.97457 14.6643 10.1672 12.4462C11.9539 10.6382 14.8499 10.6497 16.6228 12.4715C18.0735 13.9621 18.0645 16.3786 16.6023 17.8577C16.4383 18.0234 16.1738 18.0223 16.0113 17.8554C15.8488 17.6886 15.8499 17.4186 16.0135 17.2529C17.1484 16.1043 17.1558 14.2289 16.0296 13.0714C14.5812 11.5831 12.2153 11.5739 10.7556 13.0508C8.89033 14.938 8.87849 18.0209 10.7297 19.923C13.084 22.3419 16.9299 22.3571 19.3025 19.9566C19.4664 19.7909 19.7309 19.7921 19.8934 19.9589C20.056 20.1258 20.0549 20.3958 19.8912 20.5615C18.5481 21.9202 16.7901 22.5986 15.0327 22.5986Z" fill="#444444" stroke="#444444" stroke-width="0.5"/>
<path d="M20.365 15.8855L23.6006 19.1211L31.8694 10.8522C32.7629 9.95877 32.7629 8.51016 31.8694 7.61669C30.976 6.72321 29.5273 6.72321 28.6339 7.61669L20.365 15.8855Z" fill="#444444"/>
<path d="M18.6035 21.6036L20.1821 16.1914L23.3392 19.7994L18.6035 21.6036Z" fill="#444444"/>
</svg>
