<?xml version="1.0" standalone="no"?><!DOCTYPE svg PUBLIC "-//W3C//DTD SVG 1.1//EN" "http://www.w3.org/Graphics/SVG/1.1/DTD/svg11.dtd"><svg t="1566439375985" class="icon" viewBox="0 0 1024 1024" version="1.1" xmlns="http://www.w3.org/2000/svg" p-id="14087" xmlns:xlink="http://www.w3.org/1999/xlink" width="48" height="48"><defs><style type="text/css"></style></defs><path d="M450.857143 319.428571l-97.142857 257.142857q18.857143 0 78 1.142857t91.714286 1.142857q10.857143 0 32.571429-1.142857-49.714286-144.571429-105.142857-258.285714zm-414.285714 631.428571l1.142857-45.142857q13.142857-4 32-7.142857t32.571429-6 28.285714-8.285714 25.428571-16.571429 17.714286-28.857143l135.428571-352 160-413.714286 73.142857 0q4.571429 8 6.285714 12l117.142857 274.285714q18.857143 44.571429 60.571429 147.142857t65.142857 156.857143q8.571429 19.428571 33.142857 82.571429t41.142857 96.285714q11.428571 25.714286 20 32.571429 10.857143 8.571429 50.285714 16.857143t48 11.714286q3.428571 21.714286 3.428571 32.571429 0 2.285714 2.857143 7.428571t2.857143 7.428571q-36 0-108.571429-4.571429t-109.142857-4.571429q-43.428571 0-122.857143 4t-101.714286 4.571429q0-24.571429 2.285714-44.571429l74.857143-16q0.571429 0 7.142857-1.428571t8.857143-2 8.285714-2.571429 8.571429-3.714286 6.285714-4.571429 5.142857-6.285714 1.428571-8q0-9.142857-17.714286-55.142857t-41.142857-101.428571-24-57.142857l-257.142857-1.142857q-14.857143 33.142857-43.714286 111.714286t-28.857143 92.857143q0 12.571429 8 21.428571t24.857143 14 27.714286 7.714286 32.571429 4.857143 23.428571 2.285714q0.571429 10.857143 0.571429 33.142857 0 5.142857-1.142857 15.428571-33.142857 0-99.714286-5.714286t-99.714286-5.714286q-4.571429 0-15.142857 2.285714t-12.285714 2.285714q-45.714286 8-107.428571 8z" p-id="14088" fill="#ffffff"></path></svg>