<?xml version="1.0" encoding="UTF-8"?>
<svg xmlns="http://www.w3.org/2000/svg" xmlns:xlink="http://www.w3.org/1999/xlink" width="500px" height="500px" viewBox="0 0 500 500" version="1.1">
<defs>
<linearGradient id="linear0" gradientUnits="userSpaceOnUse" x1="27" y1="23.125" x2="27" y2="30.832" spreadMethod="reflect" gradientTransform="matrix(7.8125,0,0,7.8125,0,0)">
<stop offset="0" style="stop-color:rgb(42.745098%,78.039216%,100%);stop-opacity:1;"/>
<stop offset="1" style="stop-color:rgb(90.196078%,67.058824%,100%);stop-opacity:1;"/>
</linearGradient>
<linearGradient id="linear1" gradientUnits="userSpaceOnUse" x1="32" y1="5.75" x2="32" y2="59.141" spreadMethod="reflect" gradientTransform="matrix(7.8125,0,0,7.8125,0,0)">
<stop offset="0" style="stop-color:rgb(10.196078%,42.745098%,100%);stop-opacity:1;"/>
<stop offset="1" style="stop-color:rgb(78.431373%,13.333333%,100%);stop-opacity:1;"/>
</linearGradient>
<linearGradient id="linear2" gradientUnits="userSpaceOnUse" x1="32" y1="5.75" x2="32" y2="59.141" spreadMethod="reflect" gradientTransform="matrix(7.8125,0,0,7.8125,0,0)">
<stop offset="0" style="stop-color:rgb(10.196078%,42.745098%,100%);stop-opacity:1;"/>
<stop offset="1" style="stop-color:rgb(78.431373%,13.333333%,100%);stop-opacity:1;"/>
</linearGradient>
</defs>
<g id="surface186519">
<path style=" stroke:none;fill-rule:nonzero;fill:url(#linear0);" d="M 187.5 234.375 L 187.5 195.3125 C 187.5 191 190.992188 187.5 195.3125 187.5 L 234.375 187.5 Z M 187.5 234.375 "/>
<path style=" stroke:none;fill-rule:nonzero;fill:url(#linear1);" d="M 250 46.875 C 137.992188 46.875 46.875 137.992188 46.875 250 C 46.875 362.007812 137.992188 453.125 250 453.125 C 362.007812 453.125 453.125 362.007812 453.125 250 C 453.125 137.992188 362.007812 46.875 250 46.875 Z M 250 437.5 C 146.609375 437.5 62.5 353.382812 62.5 250 C 62.5 146.617188 146.609375 62.5 250 62.5 C 353.390625 62.5 437.5 146.617188 437.5 250 C 437.5 353.382812 353.382812 437.5 250 437.5 Z M 250 437.5 "/>
<path style=" stroke:none;fill-rule:nonzero;fill:url(#linear2);" d="M 328.125 157.6875 L 328.125 156.25 C 328.125 143.328125 317.609375 132.8125 304.6875 132.8125 L 195.3125 132.8125 C 182.390625 132.8125 171.875 143.328125 171.875 156.25 L 171.875 157.6875 C 164.0625 160.929688 156.25 169.515625 156.25 179.6875 L 156.25 344.289062 C 156.25 353.15625 161.15625 361.164062 169.0625 365.1875 C 172.445312 366.914062 176.085938 367.757812 179.710938 367.757812 C 184.570312 367.757812 189.390625 366.234375 193.492188 363.25 L 236.234375 332.164062 C 244.476562 326.179688 255.539062 326.179688 263.773438 332.164062 L 306.507812 363.25 C 313.671875 368.46875 323.03125 369.210938 330.945312 365.1875 C 338.851562 361.164062 343.757812 353.15625 343.757812 344.289062 L 343.757812 179.6875 C 343.75 169.515625 335.9375 160.929688 328.125 157.6875 Z M 195.3125 148.4375 L 304.6875 148.4375 C 309 148.4375 312.5 151.9375 312.5 156.25 L 187.5 156.25 C 187.5 151.9375 191 148.4375 195.3125 148.4375 Z M 328.125 344.289062 C 328.125 347.296875 326.53125 349.898438 323.851562 351.265625 C 321.164062 352.617188 318.125 352.375 315.695312 350.617188 L 272.953125 319.53125 C 259.21875 309.554688 240.773438 309.554688 227.039062 319.53125 L 184.289062 350.617188 C 181.875 352.375 178.820312 352.609375 176.140625 351.265625 C 173.46875 349.898438 171.875 347.296875 171.875 344.289062 L 171.875 179.6875 C 171.875 175.375 175.375 171.875 179.6875 171.875 L 320.3125 171.875 C 324.625 171.875 328.125 175.375 328.125 179.6875 Z M 328.125 344.289062 "/>
</g>
</svg>
