<?xml version="1.0" encoding="UTF-8"?>
<svg xmlns="http://www.w3.org/2000/svg" xmlns:xlink="http://www.w3.org/1999/xlink" width="500px" height="500px" viewBox="0 0 500 500" version="1.1">
<defs>
<linearGradient id="linear0" gradientUnits="userSpaceOnUse" x1="46.807" y1="9.849" x2="46.807" y2="24.215" spreadMethod="reflect" gradientTransform="matrix(7.8125,0,0,7.8125,0,0)">
<stop offset="0" style="stop-color:rgb(42.745098%,78.039216%,100%);stop-opacity:1;"/>
<stop offset="1" style="stop-color:rgb(90.196078%,67.058824%,100%);stop-opacity:1;"/>
</linearGradient>
<linearGradient id="linear1" gradientUnits="userSpaceOnUse" x1="32" y1="8.084" x2="32" y2="55.83" spreadMethod="reflect" gradientTransform="matrix(7.8125,0,0,7.8125,0,0)">
<stop offset="0" style="stop-color:rgb(10.196078%,42.745098%,100%);stop-opacity:1;"/>
<stop offset="1" style="stop-color:rgb(78.431373%,13.333333%,100%);stop-opacity:1;"/>
</linearGradient>
</defs>
<g id="surface186566">
<path style=" stroke:none;fill-rule:nonzero;fill:url(#linear0);" d="M 386.578125 190.5625 L 309.4375 113.421875 L 342.5 80.359375 C 345.546875 77.3125 350.476562 77.3125 353.523438 80.359375 L 419.648438 146.484375 C 422.695312 149.53125 422.695312 154.460938 419.648438 157.507812 Z M 386.578125 190.5625 "/>
<path style=" stroke:none;fill-rule:nonzero;fill:url(#linear1);" d="M 396.070312 203.117188 L 430.664062 168.523438 C 439.78125 159.40625 439.78125 144.578125 430.664062 135.460938 L 364.539062 69.335938 C 355.421875 60.21875 340.59375 60.21875 331.476562 69.335938 L 296.882812 103.929688 C 291.695312 102.5625 285.945312 103.84375 281.882812 107.90625 L 270.859375 118.929688 C 266.796875 122.992188 265.515625 128.742188 266.882812 133.929688 L 81.953125 318.859375 L 63.414062 396.726562 C 60.734375 407.992188 64.023438 419.601562 72.210938 427.789062 C 80.398438 435.976562 92.007812 439.265625 103.273438 436.578125 L 181.140625 418.039062 L 366.078125 233.101562 C 371.265625 234.46875 377.015625 233.1875 381.078125 229.125 L 392.101562 218.101562 C 396.15625 214.054688 397.4375 208.304688 396.070312 203.117188 Z M 370.054688 218.125 L 281.882812 129.953125 L 292.90625 118.929688 L 381.070312 207.09375 Z M 183.28125 393.859375 C 181.09375 385.554688 177.953125 377.632812 173.921875 370.15625 L 336.984375 207.09375 L 353.515625 223.625 Z M 116.53125 417.40625 C 115.59375 409.015625 112 400.882812 105.554688 394.445312 C 99.109375 388 90.984375 384.40625 82.59375 383.46875 L 88.046875 360.570312 C 100.929688 362.648438 112.835938 368.664062 122.085938 377.914062 C 131.335938 387.164062 137.351562 399.078125 139.429688 411.953125 Z M 133.109375 366.890625 C 121.804688 355.585938 107.320312 348.171875 91.65625 345.40625 L 95.273438 330.226562 C 113.882812 333.671875 130.6875 342.429688 144.132812 355.867188 C 157.578125 369.304688 166.328125 386.117188 169.773438 404.726562 L 154.59375 408.34375 C 151.820312 392.679688 144.414062 378.195312 133.109375 366.890625 Z M 155.148438 344.851562 C 151.421875 341.125 147.4375 337.765625 143.296875 334.664062 L 303.929688 174.03125 L 325.96875 196.070312 L 165.335938 356.703125 C 162.234375 352.5625 158.875 348.578125 155.148438 344.851562 Z M 129.84375 326.078125 C 122.367188 322.046875 114.445312 318.90625 106.140625 316.71875 L 276.375 146.484375 L 292.90625 163.015625 Z M 342.5 80.359375 C 345.539062 77.320312 350.484375 77.320312 353.523438 80.359375 L 419.648438 146.484375 C 422.6875 149.523438 422.6875 154.46875 419.648438 157.507812 L 386.585938 190.570312 L 309.445312 113.429688 Z M 342.5 80.359375 "/>
</g>
</svg>
