<?xml version="1.0" encoding="UTF-8"?>
<svg xmlns="http://www.w3.org/2000/svg" xmlns:xlink="http://www.w3.org/1999/xlink" width="128px" height="128px" viewBox="0 0 128 128" version="1.1">
<defs>
<linearGradient id="linear0" gradientUnits="userSpaceOnUse" x1="46.807" y1="9.849" x2="46.807" y2="24.215" spreadMethod="reflect" gradientTransform="matrix(2,0,0,2,0,0)">
<stop offset="0" style="stop-color:rgb(42.745098%,78.039216%,100%);stop-opacity:1;"/>
<stop offset="1" style="stop-color:rgb(90.196078%,67.058824%,100%);stop-opacity:1;"/>
</linearGradient>
<linearGradient id="linear1" gradientUnits="userSpaceOnUse" x1="32" y1="8.084" x2="32" y2="55.83" spreadMethod="reflect" gradientTransform="matrix(2,0,0,2,0,0)">
<stop offset="0" style="stop-color:rgb(10.196078%,42.745098%,100%);stop-opacity:1;"/>
<stop offset="1" style="stop-color:rgb(78.431373%,13.333333%,100%);stop-opacity:1;"/>
</linearGradient>
</defs>
<g id="surface186723">
<path style=" stroke:none;fill-rule:nonzero;fill:url(#linear0);" d="M 98.964844 48.785156 L 79.214844 29.035156 L 87.679688 20.570312 C 88.460938 19.792969 89.722656 19.792969 90.503906 20.570312 L 107.429688 37.5 C 108.210938 38.28125 108.210938 39.542969 107.429688 40.320312 Z M 98.964844 48.785156 "/>
<path style=" stroke:none;fill-rule:nonzero;fill:url(#linear1);" d="M 101.394531 51.996094 L 110.25 43.140625 C 112.585938 40.808594 112.585938 37.011719 110.25 34.679688 L 93.320312 17.75 C 90.988281 15.414062 87.191406 15.414062 84.859375 17.75 L 76.003906 26.605469 C 74.675781 26.257812 73.203125 26.585938 72.160156 27.625 L 69.339844 30.445312 C 68.300781 31.484375 67.972656 32.957031 68.320312 34.285156 L 21.378906 81.226562 L 20.980469 81.628906 L 16.234375 101.5625 C 15.546875 104.445312 16.390625 107.417969 18.484375 109.515625 C 20.582031 111.609375 23.554688 112.453125 26.4375 111.765625 L 46.371094 107.019531 L 93.714844 59.675781 C 95.042969 60.023438 96.515625 59.695312 97.554688 58.65625 L 100.378906 55.835938 C 101.414062 54.796875 101.742188 53.324219 101.394531 51.996094 Z M 94.734375 55.839844 L 72.160156 33.269531 L 74.984375 30.445312 L 97.554688 53.015625 Z M 46.921875 100.828125 C 46.359375 98.703125 45.554688 96.675781 44.523438 94.761719 L 86.269531 53.015625 L 90.5 57.246094 Z M 29.832031 106.855469 C 29.59375 104.707031 28.671875 102.625 27.023438 100.976562 C 25.371094 99.328125 23.292969 98.40625 21.144531 98.167969 L 22.539062 92.304688 C 25.839844 92.839844 28.886719 94.378906 31.253906 96.746094 C 33.621094 99.113281 35.160156 102.164062 35.695312 105.460938 Z M 34.074219 93.925781 C 31.183594 91.03125 27.472656 89.132812 23.464844 88.425781 L 24.390625 84.539062 C 29.152344 85.421875 33.457031 87.660156 36.898438 91.101562 C 40.339844 94.542969 42.578125 98.847656 43.460938 103.609375 L 39.574219 104.535156 C 38.867188 100.527344 36.96875 96.816406 34.074219 93.925781 Z M 39.71875 88.28125 C 38.765625 87.328125 37.742188 86.46875 36.683594 85.675781 L 77.804688 44.550781 L 83.449219 50.195312 L 42.324219 91.316406 C 41.53125 90.257812 40.671875 89.234375 39.71875 88.28125 Z M 33.238281 83.476562 C 31.324219 82.445312 29.296875 81.640625 27.171875 81.078125 L 70.753906 37.5 L 74.984375 41.730469 Z M 87.679688 20.570312 C 88.457031 19.792969 89.722656 19.792969 90.503906 20.570312 L 107.429688 37.5 C 108.207031 38.277344 108.207031 39.542969 107.429688 40.320312 L 98.964844 48.785156 L 79.21875 29.039062 Z M 87.679688 20.570312 "/>
</g>
</svg>
