<svg t="1566439494540" class="icon" viewBox="0 0 1024 1024" version="1.1" xmlns="http://www.w3.org/2000/svg" p-id="17309" xmlns:xlink="http://www.w3.org/1999/xlink" width="48" height="48"><defs><style type="text/css"></style></defs><path d="M915.2 280.4l-165-8-9.6-107.6c-2-22.6-22.2-38.4-45.8-36.6L102.8 176.8c-23.6 2-40.6 21-38.8 43.4l42.4 471.6c2 22.6 22.4 38.4 45.8 36.6l30-2.4-4.8 91.6c-1.2 25.2 18.4 45.6 44.8 47L882.6 896c26.4 1.2 48.2-17.2 49.6-42.4L960 327C961.2 302 941.4 281.6 915.2 280.4zM205.2 291l-14.2 269.6L156.2 610l-32-356c0-0.4 0-0.6 0-1s0-0.6 0-1c1-10 8.6-18 19-18.8l522-42.8c10.4-0.8 19.4 6 21 15.8 0 0.4 0.6 0.4 0.6 0.8 0 0.2 0.6 0.4 0.6 0.8l5.4 61.6-438-21C228.4 247.6 206.4 266 205.2 291zM873.4 764.8l-93.4-110.6-55-65.4c-4.8-5.8-12.6-10.6-21.2-11-8.6-0.4-15 3-22.2 8.2l-32.8 23.8c-7 4.2-12.4 7-19.8 6.6-7.2-0.4-13.6-3.2-18.2-7.6-1.6-1.6-4.6-4.4-7-6.8l-85.6-97.8c-6.2-7.8-16.4-12.8-27.6-13.4-11.4-0.6-22.4 4.2-29.6 11.2L258.8 719.6l-13.6 14.8 0.6-13.6 13.6-257.8 6.6-125.8c0-0.4 0-0.8 0-1 0-0.4 0-0.8 0-1 2.8-10.8 12.4-18.6 23.8-18l408.4 19.6 57.4 2.8 116.6 5.6c11.6 0.6 20.6 9.4 20.8 20.4 0 0.4 0.6 0.6 0.6 1 0 0.4 0.6 0.6 0.6 1L873.4 764.8z" p-id="17310"></path><path d="M746.4 524.6c38.8 0 70.4-31.6 70.4-70.4s-31.4-70.4-70.4-70.4c-38.8 0-70.4 31.4-70.4 70.4S707.4 524.6 746.4 524.6z" p-id="17311"></path></svg>