<?xml version="1.0" standalone="no"?><!DOCTYPE svg PUBLIC "-//W3C//DTD SVG 1.1//EN" "http://www.w3.org/Graphics/SVG/1.1/DTD/svg11.dtd"><svg t="1565916028777" class="icon" viewBox="0 0 1024 1024" version="1.1" xmlns="http://www.w3.org/2000/svg" p-id="6876" xmlns:xlink="http://www.w3.org/1999/xlink" width="200" height="200"><defs><style type="text/css"></style></defs><path d="M219.465143 949.686857l9.728-48.566857q3.437714-1.170286 46.592-12.288t63.707429-21.430857q16.018286-19.968 23.405714-57.709714 0.585143-4.022857 35.401143-165.156571t65.170286-310.564571 29.696-169.398857l0-14.262857q-13.677714-7.460571-31.158857-10.605714t-39.716571-4.534857-33.133714-3.145143l10.825143-58.88q18.870857 1.170286 68.534857 3.730286t85.430857 4.022857 68.827429 1.462857q27.428571 0 56.32-1.462857t69.12-4.022857 56.32-3.730286q-2.852571 22.308571-10.825143 50.834286-17.115429 5.705143-58.002286 16.310857t-62.025143 19.163429q-4.534857 10.825143-7.972571 24.283429t-5.12 22.820571-4.315429 25.965714-3.730286 23.990857q-15.433143 84.553143-50.029714 239.689143t-44.251429 203.117714q-1.170286 5.12-7.460571 33.133714t-11.410286 51.419429-9.142857 47.689143-3.437714 32.841143l0.585143 10.313143q9.728 2.267429 105.691429 17.700571-1.682286 25.161143-9.142857 56.539429-6.290286 0-18.578286 0.877714t-18.578286 0.877714q-16.603429 0-49.737143-5.705143t-49.152-5.705143q-78.848-1.170286-117.686857-1.170286-29.110857 0-81.700571 5.12t-69.12 6.290286z" p-id="6877" fill="#1296db"></path></svg>