<?xml version="1.0" standalone="no"?><!DOCTYPE svg PUBLIC "-//W3C//DTD SVG 1.1//EN" "http://www.w3.org/Graphics/SVG/1.1/DTD/svg11.dtd"><svg t="1565916214933" class="icon" viewBox="0 0 1024 1024" version="1.1" xmlns="http://www.w3.org/2000/svg" p-id="3423" xmlns:xlink="http://www.w3.org/1999/xlink" width="200" height="200"><defs><style type="text/css"></style></defs><path d="M199.04512 788.48 199.04512 788.48l409.27232 0L816.3328 788.48c11.30496 0 20.48-9.15456 20.48-20.48s-9.17504-20.48-20.48-20.48L608.31744 747.52 199.0656 747.52l0 0c-11.30496 0-20.48 9.15456-20.48 20.48S187.74016 788.48 199.04512 788.48z" p-id="3424" fill="#1296db"></path><path d="M199.04512 624.64l614.4 0c11.30496 0 20.48-9.15456 20.48-20.48s-9.17504-20.48-20.48-20.48l-614.4 0c-11.30496 0-20.48 9.15456-20.48 20.48S187.74016 624.64 199.04512 624.64z" p-id="3425" fill="#1296db"></path><path d="M813.44512 256l-614.4 0c-11.30496 0-20.48 9.15456-20.48 20.48s9.17504 20.48 20.48 20.48l614.4 0c11.30496 0 20.48-9.15456 20.48-20.48S824.75008 256 813.44512 256z" p-id="3426" fill="#1296db"></path><path d="M816.3328 419.84 608.31744 419.84 199.0656 419.84l0 0c-11.30496 0-20.48 9.15456-20.48 20.48s9.17504 20.48 20.48 20.48l0 0 409.25184 0L816.3328 460.8c11.30496 0 20.48-9.15456 20.48-20.48S827.63776 419.84 816.3328 419.84z" p-id="3427" fill="#1296db"></path></svg>