<?xml version="1.0" standalone="no"?><!DOCTYPE svg PUBLIC "-//W3C//DTD SVG 1.1//EN" "http://www.w3.org/Graphics/SVG/1.1/DTD/svg11.dtd"><svg t="1566439822664" class="icon" viewBox="0 0 1024 1024" version="1.1" xmlns="http://www.w3.org/2000/svg" p-id="22105" xmlns:xlink="http://www.w3.org/1999/xlink" width="48" height="48"><defs><style type="text/css"></style></defs><path d="M752 372h-40v-80c0-110-90-200-200-200S312 182 312 292h75.996c0-68.008 56.006-124.004 124.004-124.004 68.008 0 124.004 55.996 124.004 124.004H636v80H272c-44.004 0-80 35.996-80 80v400c0 44.004 35.996 80 80 80h480c44.004 0 80-35.996 80-80V452c0-44.004-35.996-80-80-80zM512 736c-44.004 0-80-35.996-80-80s35.996-80 80-80 80 35.996 80 80-35.996 80-80 80z" fill="#ffffff" p-id="22106"></path></svg>