<?xml version="1.0" standalone="no"?><!DOCTYPE svg PUBLIC "-//W3C//DTD SVG 1.1//EN" "http://www.w3.org/Graphics/SVG/1.1/DTD/svg11.dtd"><svg t="1566439542092" class="icon" viewBox="0 0 1024 1024" version="1.1" xmlns="http://www.w3.org/2000/svg" p-id="18211" xmlns:xlink="http://www.w3.org/1999/xlink" width="48" height="48"><defs><style type="text/css"></style></defs><path d="M692.780522 448a54.984348 54.984348 0 0 1-8.347826-3.895652 65.981217 65.981217 0 0 1-33.146435-43.876174L607.165217 131.205565l-0.467478-13.267478c0-16.228174 9.772522-23.30713 23.841391-29.718261l5.008696-2.048c17.16313-7.791304 28.850087-17.808696 28.850087-37.264696C664.397913 2.960696 648.904348 0 620.989217 0H403.233391c-27.89287 0-43.408696 2.738087-43.408695 48.90713 0 19.433739 11.686957 29.495652 28.872347 37.264696 1.669565 0.667826 3.33913 1.135304 5.008696 2.048 14.06887 6.633739 23.841391 13.712696 23.841391 29.718261l-0.467478 13.267478-44.121043 269.022609a65.981217 65.981217 0 0 1-33.168696 43.876174 54.984348 54.984348 0 0 1-8.347826 3.895652C284.493913 471.30713 245.114435 518.41113 245.114435 573.039304c0 36.329739 8.347826 48.684522 36.240695 48.684522h192.48974L502.427826 1024h19.099826l28.605218-402.276174h192.712347c27.91513 0 36.262957-10.752 36.262957-48.684522 0-54.628174-39.357217-101.732174-86.349913-125.039304z" p-id="18212" fill="#bfbfbf"></path></svg>