<?xml version="1.0" standalone="no"?><!DOCTYPE svg PUBLIC "-//W3C//DTD SVG 1.1//EN" "http://www.w3.org/Graphics/SVG/1.1/DTD/svg11.dtd"><svg t="1566439613513" class="icon" viewBox="0 0 1024 1024" version="1.1" xmlns="http://www.w3.org/2000/svg" p-id="19653" xmlns:xlink="http://www.w3.org/1999/xlink" width="48" height="48"><defs><style type="text/css"></style></defs><path d="M486.50822 22.375663c-256.330032 0-464.132556 207.802524-464.132556 464.132556 0 256.340266 207.802524 464.14279 464.132556 464.14279 256.340266 0 464.14279-207.802524 464.14279-464.14279C950.65101 230.178188 742.848485 22.375663 486.50822 22.375663zM667.22253 516.717668l-168.884323 0 0 168.894556c0 11.932323-9.640007 21.562096-21.572329 21.562096-11.911856 0-21.541629-9.629773-21.541629-21.562096l0-168.894556-168.894556 0c-11.932323 0-21.572329-9.640007-21.572329-21.541629 0-11.932323 9.640007-21.572329 21.572329-21.572329l168.884323 0 0-168.894556c0-11.932323 9.640007-21.562096 21.551862-21.562096 11.932323 0 21.572329 9.629773 21.572329 21.562096l0 168.894556 168.884323 0c11.911856 0 21.572329 9.640007 21.572329 21.562096C688.794859 507.077661 679.154852 516.717668 667.22253 516.717668z" p-id="19654" fill="#ffffff"></path></svg>