<?xml version="1.0" standalone="no"?><!DOCTYPE svg PUBLIC "-//W3C//DTD SVG 1.1//EN" "http://www.w3.org/Graphics/SVG/1.1/DTD/svg11.dtd"><svg t="1565915959742" class="icon" viewBox="0 0 1024 1024" version="1.1" xmlns="http://www.w3.org/2000/svg" p-id="1104" xmlns:xlink="http://www.w3.org/1999/xlink" width="200" height="200"><defs><style type="text/css"></style></defs><path d="M512.91 16c132.538 0.238 252.874 52.466 341.718 137.37l71.43-71.43C956.298 51.702 1008 73.118 1008 115.882V384c0 26.51-21.49 48-48 48H691.882c-42.764 0-64.18-51.702-33.942-81.942l83.5-83.5c-61.728-57.798-141.602-89.814-226.46-90.546-184.796-1.596-340.566 147.954-338.968 338.884C177.528 696.018 324.368 848 512 848c82.254 0 159.994-29.356 221.258-83.112 9.486-8.322 23.812-7.816 32.736 1.106l79.324 79.324c9.744 9.744 9.262 25.63-0.964 34.866C756.404 959.626 639.852 1008 512 1008 238.068 1008 16.002 785.934 16 512.004 15.998 238.386 239.292 15.51 512.91 16z" p-id="1105" fill="#1296db"></path></svg>