<svg viewBox="0 0 24 24" width="24" height="24" xmlns="http://www.w3.org/2000/svg" class="_19-M9s6jCXwnZhTKBxjA3T _2XjIFTvbZ5OBTohIPviQOG"><path d="M16.787 15.446c0-.9-.261-1.12-1.914-1.656-.048-.015-.095-.03-.14-.046.198-.117.344-.224.444-.315.155-.14.1-.328-.042-.48a3.819 3.819 0 0 1-1.01-2.041c-.195-1.27.545-2.736 2.095-2.736 1.55 0 2.29 1.467 2.095 2.736a3.818 3.818 0 0 1-1.01 2.04c-.142.153-.197.342-.042.481.258.233.814.579 1.81.901 1.071.347 1.24.49 1.24 1.072v2.118a.925.925 0 0 1-.925.926h-2.601v-3z" fill="#000"></path><path d="M13.82 14.539c1.563.505 1.81.714 1.81 1.564v2.343H4.61a.925.925 0 0 1-.924-.926v-1.417c0-.85.246-1.059 1.809-1.564 1.453-.47 2.264-.976 2.64-1.315.227-.204.146-.479-.061-.702-.5-.537-1.246-1.508-1.472-2.977-.286-1.85.794-3.99 3.056-3.99 2.26 0 3.341 2.14 3.056 3.99-.227 1.47-.973 2.44-1.473 2.977-.207.223-.288.498-.062.702.377.34 1.188.845 2.641 1.315z"></path></svg>