<?xml version="1.0" standalone="no"?><!DOCTYPE svg PUBLIC "-//W3C//DTD SVG 1.1//EN" "http://www.w3.org/Graphics/SVG/1.1/DTD/svg11.dtd"><svg t="1566439216879" class="icon" viewBox="0 0 1024 1024" version="1.1" xmlns="http://www.w3.org/2000/svg" p-id="10220" xmlns:xlink="http://www.w3.org/1999/xlink" width="48" height="48"><defs><style type="text/css"></style></defs><path d="M853.333333 1024 170.666667 1024c-93.866667 0-170.666667-76.8-170.666667-170.666667L0 170.666667c0-93.866667 76.8-170.666667 170.666667-170.666667l682.666667 0c93.866667 0 170.666667 76.8 170.666667 170.666667l0 682.666667C1024 947.2 947.2 1024 853.333333 1024zM170.666667 85.333333C123.733333 85.333333 85.333333 123.733333 85.333333 170.666667l0 682.666667c0 46.933333 38.4 85.333333 85.333333 85.333333l682.666667 0c46.933333 0 85.333333-38.4 85.333333-85.333333L938.666667 170.666667c0-46.933333-38.4-85.333333-85.333333-85.333333L170.666667 85.333333z" p-id="10221" fill="#ffffff"></path><path d="M341.333333 1024c-25.6 0-42.666667-17.066667-42.666667-42.666667L298.666667 42.666667c0-25.6 17.066667-42.666667 42.666667-42.666667s42.666667 17.066667 42.666667 42.666667l0 938.666667C384 1006.933333 366.933333 1024 341.333333 1024z" p-id="10222" fill="#ffffff"></path><path d="M725.333333 554.666667c-12.8 0-21.333333-4.266667-29.866667-12.8l-128-128c-17.066667-17.066667-17.066667-42.666667 0-59.733333s42.666667-17.066667 59.733333 0l128 128c17.066667 17.066667 17.066667 42.666667 0 59.733333C746.666667 550.4 738.133333 554.666667 725.333333 554.666667z" p-id="10223" fill="#ffffff"></path><path d="M597.333333 682.666667c-12.8 0-21.333333-4.266667-29.866667-12.8-17.066667-17.066667-17.066667-42.666667 0-59.733333l128-128c17.066667-17.066667 42.666667-17.066667 59.733333 0s17.066667 42.666667 0 59.733333l-128 128C618.666667 678.4 610.133333 682.666667 597.333333 682.666667z" p-id="10224" fill="#ffffff"></path></svg>