<?xml version="1.0" standalone="no"?><!DOCTYPE svg PUBLIC "-//W3C//DTD SVG 1.1//EN" "http://www.w3.org/Graphics/SVG/1.1/DTD/svg11.dtd"><svg t="1565916077092" class="icon" viewBox="0 0 1025 1024" version="1.1" xmlns="http://www.w3.org/2000/svg" p-id="1716" xmlns:xlink="http://www.w3.org/1999/xlink" width="200.1953125" height="200"><defs><style type="text/css"></style></defs><path d="M1005.715302 512q7.972571 0 13.165714 5.12t5.12 13.165714l0 36.571429q0 7.972571-5.12 13.165714t-13.165714 5.12l-987.428571 0q-7.972571 0-13.165714-5.12t-5.12-13.165714l0-36.571429q0-7.972571 5.12-13.165714t13.165714-5.12l987.428571 0zM275.969016 475.428571q-16.018286-19.968-29.110857-45.714286-27.428571-55.442286-27.428571-107.446857 0-103.424 76.580571-176.566857 75.995429-72.557714 224.548571-72.557714 28.598857 0 95.451429 10.825143 37.741714 6.875429 101.156571 27.428571 5.705143 21.723429 11.995429 67.437714 7.972571 70.290286 7.972571 104.594286 0 10.313143-2.852571 25.746286l-6.875429 1.682286-47.981714-3.437714-7.972571-1.170286q-28.598857-85.138286-58.88-117.174857-50.322286-52.004571-120.027429-52.004571-65.170286 0-104.009143 33.718857-38.253714 33.133714-38.253714 83.456 0 41.691429 37.741714 80.018286t159.451429 73.728q39.424 11.410286 98.889143 37.741714 33.133714 16.018286 54.272 29.696l-424.594286 0zM565.687873 621.714286l234.861714 0q4.022857 22.308571 4.022857 52.589714 0 63.414857-23.405714 121.124571-13.165714 31.451429-40.594286 59.465143-21.138286 19.968-62.317714 46.299429-45.714286 27.428571-87.405714 37.741714-45.714286 11.995429-116.004571 11.995429-65.170286 0-111.396571-13.165714l-80.018286-22.820571q-32.548571-9.142857-41.179429-16.018286-4.534857-4.534857-4.534857-12.580571l0-7.460571q0-61.732571-1.170286-89.161143-0.585143-17.115429 0-38.838857l1.170286-21.138286 0-25.161143 58.294857-1.170286q8.557714 19.456 17.115429 40.594286t12.873143 32.036571 7.168 15.433143q19.968 32.548571 45.714286 53.686857 24.576 20.553143 59.977143 32.548571 33.718857 12.580571 75.410286 12.580571 36.571429 0 79.433143-15.433143 44.032-14.848 69.705143-49.152 26.843429-34.889143 26.843429-73.728 0-47.981714-46.299429-89.746286-19.456-16.603429-78.262857-40.594286z" p-id="1717" fill="#1296db"></path></svg>