<svg width="10" height="12" viewBox="0 0 10 12" fill="none" xmlns="http://www.w3.org/2000/svg">
<path d="M8.375 12H1.377C0.8245 12 0.375 11.5505 0.375 10.998V2.002C0.375 1.4495 0.8245 1 1.377 1H8.375C8.927 1 9.377 1.4495 9.377 2.002V10.998C9.377 11.5505 8.927 12 8.375 12ZM1.377 2L1.375 10.998L8.376 11L8.377 2.002L1.377 2ZM4.877 3C4.601 3 4.377 2.776 4.377 2.5V0.5C4.377 0.224 4.601 0 4.877 0C5.153 0 5.377 0.224 5.377 0.5V2.5C5.377 2.776 5.153 3 4.877 3ZM6.877 3C6.6005 3 6.377 2.776 6.377 2.5V0.5C6.377 0.224 6.6005 0 6.877 0C7.1535 0 7.377 0.224 7.377 0.5V2.5C7.377 2.776 7.1535 3 6.877 3ZM2.877 3C2.601 3 2.377 2.776 2.377 2.5V0.5C2.377 0.224 2.601 0 2.877 0C3.153 0 3.377 0.224 3.377 0.5V2.5C3.377 2.776 3.153 3 2.877 3Z" fill="#404040"/>
</svg>
