<svg width="22" height="22" viewBox="0 0 22 22" fill="none" xmlns="http://www.w3.org/2000/svg">
<g opacity="0.859654">
<mask id="mask0" mask-type="alpha" maskUnits="userSpaceOnUse" x="3" y="4" width="15" height="14">
<path fill-rule="evenodd" clip-rule="evenodd" d="M6.85499 14.0977C6.14397 13.2798 6.23088 12.0369 7.04881 11.3259L8.9621 9.66272L8.17208 8.75391L6.25879 10.4171C4.93863 11.5647 4.79858 13.5675 5.94618 14.8877C7.09378 16.2079 9.09661 16.3479 10.4168 15.2003L12.3301 13.5371L11.54 12.6283L9.62676 14.2915C8.80883 15.0025 7.56601 14.9156 6.85499 14.0977V14.0977ZM9.23191 12.8712L13.0585 9.54484L12.2269 8.5882L8.40031 11.9146L9.23191 12.8712V12.8712ZM11.042 6.25912L9.12872 7.92231L9.91874 8.83112L11.832 7.16793C12.65 6.45691 13.8928 6.54382 14.6038 7.36175C15.3148 8.17968 15.2279 9.4225 14.41 10.1335L12.4967 11.7967L13.2867 12.7055L15.2 11.0423C16.5202 9.89473 16.6602 7.8919 15.5126 6.57173C14.365 5.25156 12.3622 5.11151 11.042 6.25912V6.25912Z" fill="white"/>
</mask>
<g mask="url(#mask0)">
<rect x="-11.6235" y="9.16797" width="31.6891" height="31.6891" transform="rotate(-41 -11.6235 9.16797)" fill="black"/>
<mask id="mask1" mask-type="alpha" maskUnits="userSpaceOnUse" x="-12" y="-12" width="46" height="46">
<rect x="-11.6235" y="9.16797" width="31.6891" height="31.6891" transform="rotate(-41 -11.6235 9.16797)" fill="white"/>
</mask>
<g mask="url(#mask1)">
</g>
</g>
</g>
</svg>
