<?xml version="1.0" standalone="no"?><!DOCTYPE svg PUBLIC "-//W3C//DTD SVG 1.1//EN" "http://www.w3.org/Graphics/SVG/1.1/DTD/svg11.dtd"><svg t="1565916121025" class="icon" viewBox="0 0 1024 1024" version="1.1" xmlns="http://www.w3.org/2000/svg" p-id="2411" xmlns:xlink="http://www.w3.org/1999/xlink" width="200" height="200"><defs><style type="text/css"></style></defs><path d="M512.528 776.48c-183.338 0-313.206-102.33-313.206-302.784V128H142.74c-17.674 0-32-14.326-32-32V32c0-17.674 14.326-32 32-32h274.78c17.674 0 32 14.326 32 32v64c0 17.674-14.326 32-32 32h-57.626v345.696c0 107.398 56.628 158.888 152.634 158.888 93.932 0 151.592-50.868 151.592-159.93V128h-56.582c-17.674 0-32-14.326-32-32V32c0-17.674 14.326-32 32-32h273.736c17.674 0 32 14.326 32 32v64c0 17.674-14.326 32-32 32h-56.582v345.696c0 198.81-129.762 302.784-312.164 302.784zM96 896h832c17.674 0 32 14.326 32 32v64c0 17.674-14.326 32-32 32H96c-17.674 0-32-14.326-32-32v-64c0-17.674 14.326-32 32-32z" fill="#1296db" p-id="2412"></path></svg>